<svg width="196" height="39" viewBox="0 0 196 39" fill="none" xmlns="http://www.w3.org/2000/svg">
<path d="M10.3 13.2102C10.95 15.5602 7.9 17.8102 6.65 18.1602C5.425 18.5102 3.85 18.7102 2.475 17.6602C1.575 16.9852 0.825 15.8602 0.8 13.8102C0.75 8.43522 5.8 3.68522 8.625 2.76022C10.025 2.31022 11.15 2.28522 12 2.91022C12.7 3.41022 13.1 4.03522 13.3 4.68522C13.525 5.38522 13.475 6.06022 13.125 6.86022C12.825 7.53522 12.425 8.53522 12.15 9.26022C12.075 9.46022 11.9 9.63522 11.625 9.38522C11.05 8.98522 10.65 8.26022 10.975 7.01022C11.3 5.76022 12.225 4.36022 11.675 3.81022C10.875 2.98522 6.8 5.13522 4.425 8.76022C2.1 12.3102 2.175 16.1102 3.175 17.0352C4.55 18.3102 7.475 16.4352 9 13.4102C8.2 13.5602 7.4 13.7102 6.8 13.7602C5.55 13.8852 4.775 13.3602 4.4 12.5602C4.275 12.3102 4.35 12.1602 4.65 12.1602C6.6 12.1352 8.5 11.5102 10.025 11.4852C11.275 11.4602 11.975 12.0102 12.3 12.7602C12.425 13.0352 12.375 13.2102 12.05 13.1602C11.575 13.1102 10.95 13.1352 10.3 13.2102ZM14.8 13.7352C14 16.0352 14.6 17.6102 15.925 17.6852C18 17.7852 19.825 15.7852 20.9 14.1352C21.025 13.9352 21.225 13.9352 21.325 14.1602C21.425 14.3602 21.35 15.0602 20.9 15.7102C19.85 17.2352 17.925 18.3852 16 18.4102C12.825 18.4602 11.725 15.3352 13.35 12.1102C14.975 8.88522 17.525 7.58522 18.775 8.31022C19.4 8.68522 19.85 9.06022 20.25 9.61022C20.7 10.2102 20.5 11.7352 19.45 13.0102C18.225 14.5102 16.55 15.1602 14.8 13.7352ZM15.025 13.1852C16.25 13.9602 17.275 12.8852 18 11.9352C18.8 10.8852 19.35 9.58522 19 9.31022C18.475 8.88522 16.4 10.3852 15.225 12.7602C15.15 12.9102 15.075 13.0602 15.025 13.1852ZM24.5078 10.6602C25.6328 9.46022 27.3328 8.08522 28.1578 8.21022C28.9828 8.33522 29.7578 9.56022 29.1328 10.8602C28.6078 11.9602 27.3828 13.8102 26.8078 15.1102C26.1578 16.5602 26.3078 17.7352 27.2078 17.6852C28.2328 17.6352 29.4578 15.9852 30.4078 14.2352C30.5328 14.0102 30.7078 14.0102 30.8328 14.2102C31.0078 14.4852 30.9578 15.0602 30.6078 15.7852C29.9328 17.1852 28.3578 18.4602 26.9078 18.4602C24.7828 18.4602 24.2828 16.9102 25.0078 14.7352C25.8328 12.2852 28.0328 9.63522 27.5828 9.43522C27.3328 9.33522 25.8828 10.0352 24.2828 11.7852C22.8078 13.3852 21.7078 15.7852 20.6328 18.1352C20.5328 18.3602 20.3828 18.4602 20.1578 18.2352C19.6578 17.7352 19.5078 16.9102 19.9078 15.6602C20.4078 14.0852 22.3328 10.6102 23.9078 8.28522C24.0828 8.01022 24.2828 8.03522 24.4328 8.28522C24.8078 8.91022 24.7828 9.76022 24.5078 10.6602ZM46.7775 15.8102C46.1525 17.3102 44.6525 18.4602 43.2775 18.3852C41.3775 18.2852 40.6275 16.5852 41.2525 14.5602C41.7775 12.8852 43.2775 11.0352 44.3525 9.83522C43.2525 10.5352 42.1275 10.7852 41.3525 10.7852C39.2775 15.1352 36.5775 18.2852 33.6025 18.3352C30.4275 18.3852 29.3525 15.2852 30.9775 12.0852C32.5525 8.98522 35.1025 7.58522 36.3525 8.31022C36.9775 8.68522 37.4275 9.03522 37.8275 9.58522C38.2525 10.1852 38.0025 11.6602 37.0025 12.9352C35.8275 14.4602 34.1525 15.0852 32.4025 13.6852C31.6025 15.9602 32.2275 17.5852 33.5025 17.6352C36.2525 17.7602 39.0025 13.8102 40.3775 10.6352C38.4525 9.83522 40.9025 6.51022 41.9525 6.46022C42.7275 6.43522 42.4775 7.96022 41.8525 9.58522C42.7275 9.46022 43.6025 9.06022 44.5775 8.41022C44.8775 8.21022 45.1025 8.08522 45.2775 8.33522C45.7775 8.88522 46.4025 10.0852 45.6525 10.9102C44.4775 12.2102 43.2025 13.9102 42.7775 15.2602C42.3525 16.6352 42.6525 17.6352 43.4025 17.6602C44.4525 17.7102 45.7275 16.0602 46.5275 14.2102C46.6275 14.0102 46.8025 13.9602 46.9025 14.1852C47.0275 14.4602 47.0775 15.1102 46.7775 15.8102ZM32.6275 13.1352C33.8525 13.8852 34.8275 12.8602 35.5775 11.9102C36.3775 10.8852 36.9025 9.58522 36.5775 9.31022C36.0275 8.83522 33.9775 10.4102 32.8275 12.7102C32.7525 12.8352 32.7025 13.0102 32.6275 13.1352ZM52.0158 6.53522C52.3408 7.18522 52.1658 7.86022 51.8408 8.21022C51.5158 8.56022 50.8158 8.48522 50.4408 7.83522C50.0408 7.16022 50.1658 6.41022 50.5658 5.98522C50.9658 5.56022 51.6908 5.86022 52.0158 6.53522ZM47.9408 18.3852C46.0408 18.3852 45.5658 16.7852 46.2658 14.7352C46.8908 12.9102 48.5408 9.96022 49.4658 8.66022C49.6908 8.36022 49.8658 8.28522 50.0658 8.51022C50.4408 8.91022 50.6408 9.98522 50.0408 11.2352C49.5158 12.3352 48.4658 14.0352 47.9408 15.2852C47.3408 16.7352 47.3908 17.7102 48.1908 17.6602C49.3158 17.6102 50.6908 15.9602 51.4408 14.2352C51.5658 14.0102 51.7408 14.0352 51.8408 14.2352C52.0408 14.6352 51.9658 15.1602 51.6658 15.7852C50.9158 17.3352 49.3408 18.3852 47.9408 18.3852ZM57.4201 8.36022C58.0951 8.76022 58.4951 9.16022 58.7951 9.73522C59.3201 10.7852 58.3201 12.1102 57.8201 13.4602C57.7201 13.7602 57.6201 13.8352 57.2951 13.6602C56.6951 13.3602 56.3451 12.6102 56.6951 11.4852C56.9701 10.5852 57.7201 9.51022 57.3701 9.23522C56.9451 8.88522 55.0701 10.4852 53.9451 12.7602C52.5701 15.5852 53.0951 17.6602 54.5701 17.6852C56.6701 17.7102 58.4701 15.7102 59.4951 14.1352C59.6201 13.9352 59.8451 13.9102 59.9451 14.1602C60.0201 14.3602 59.9201 14.9852 59.4951 15.6602C58.5451 17.1352 56.5701 18.3602 54.6701 18.3852C51.4951 18.4352 50.4201 15.3352 52.0451 12.1102C53.6451 8.96022 56.1701 7.61022 57.4201 8.36022Z" fill="white"/>
<path d="M131.7 12.8602C131.825 12.5852 132.1 12.5852 132.225 12.9102C132.85 14.5852 131.25 16.4602 130.2 17.2102C128.425 18.4852 126.325 18.4602 124.975 17.7352C123.85 17.1352 122.875 15.5852 122.825 13.5352C122.725 8.23522 127.175 3.71022 129.975 2.63522C131.325 2.11022 132.55 2.01022 133.35 2.71022C133.9 3.18522 134.475 3.91022 134.675 4.53522C134.9 5.26022 134.825 5.96022 134.45 6.73522C134.075 7.51022 133.725 8.48522 133.45 9.21022C133.375 9.41022 133.2 9.56022 132.9 9.36022C132.325 8.98522 131.925 8.21022 132.3 6.96022C132.7 5.63522 133.6 4.21022 133.025 3.61022C132.325 2.86022 128.525 4.88522 126.275 8.61022C124.075 12.2602 124.325 15.9602 125.55 16.9602C127.15 18.2602 129.8 16.5852 131.7 12.8602ZM157.398 14.2352C157.523 14.4102 157.523 15.2102 157.223 15.8102C156.523 17.1852 154.923 18.4852 153.498 18.4602C151.348 18.4352 150.598 16.7352 151.473 14.7102C152.373 12.6102 154.598 9.86022 154.223 9.71022C154.023 9.63522 153.148 9.96022 151.548 11.5602C149.498 13.6102 148.273 15.9852 147.223 18.3102C147.098 18.6102 146.873 18.6852 146.648 18.4602C146.248 18.0602 145.948 17.1102 146.623 15.3352C147.423 13.2602 150.098 9.83522 149.623 9.63522C149.373 9.53522 148.123 10.2102 146.523 11.9602C145.073 13.5352 143.873 15.8352 142.873 18.1852C142.773 18.3852 142.648 18.4602 142.398 18.2602C141.873 17.8352 141.748 16.9852 142.148 15.7352C142.398 14.9102 143.023 13.6352 143.748 12.2352C143.048 12.7102 142.298 12.9352 141.423 12.8602C140.923 15.0102 139.348 17.6102 137.498 18.2102C136.598 18.5102 135.323 18.4852 134.323 17.1352C133.248 15.6852 133.623 13.4852 134.748 11.5102C135.698 9.83522 137.223 8.36022 138.723 8.26022C139.498 8.21022 139.873 8.43522 140.398 9.11022C140.998 9.88522 141.748 10.0102 141.598 11.8602C141.598 11.9852 141.598 12.1352 141.548 12.2602C143.148 12.2352 144.773 10.3852 146.048 8.36022C146.198 8.11022 146.448 8.11022 146.598 8.36022C146.998 9.01022 146.923 9.98522 146.548 10.9602C147.673 9.71022 149.498 8.23522 150.398 8.26022C151.248 8.28522 151.673 9.61022 151.373 10.7102C152.548 9.58522 154.223 8.41022 155.023 8.43522C155.923 8.46022 156.123 9.93522 155.623 11.1352C155.148 12.2602 153.948 13.9102 153.348 15.1352C152.648 16.5602 152.973 17.7352 153.898 17.6852C154.898 17.6352 156.023 16.0102 156.973 14.2352C157.098 14.0102 157.273 14.0602 157.398 14.2352ZM139.998 11.8602C140.148 11.1352 140.223 10.5602 140.148 10.1102C140.023 9.31022 139.498 9.43522 139.398 10.1852C139.323 10.7102 139.498 11.4352 139.998 11.8602ZM139.798 12.4852C138.923 12.0102 138.223 11.0852 138.173 10.1102C137.498 10.6852 136.798 11.5352 136.248 12.4852C135.148 14.3602 134.823 16.6352 135.473 17.2102C136.148 17.8102 137.673 16.8852 138.898 14.6352C139.323 13.8602 139.623 13.1352 139.798 12.4852ZM161.844 17.9102C164.294 17.7602 165.794 15.9602 166.594 14.2602C166.744 13.9102 167.019 14.0102 167.069 14.2602C167.119 14.4852 167.169 15.1352 166.744 15.9102C165.794 17.6352 164.094 18.4602 162.294 18.5852C160.694 18.6852 159.644 18.4602 158.769 17.6602C158.244 17.1852 157.994 16.6102 157.919 15.9852C156.744 18.1352 155.469 20.6852 154.269 23.4602C154.169 23.6852 153.994 23.7352 153.844 23.5102C153.469 22.9852 153.344 22.2852 153.819 20.7602C154.569 18.3352 158.769 10.4102 160.344 8.31022C160.594 7.98522 160.819 8.03522 160.944 8.33522C161.069 8.66022 161.119 9.03522 161.094 9.46022C162.194 8.51022 163.669 7.81022 164.744 8.93522C165.944 10.2102 165.394 12.4352 164.469 14.4852C163.719 16.1352 162.794 17.3352 161.844 17.9102ZM159.319 13.4852C158.694 15.0602 158.569 16.5602 159.269 17.1352C160.069 17.7852 161.694 15.9602 162.869 13.5602C163.844 11.5602 164.119 9.48522 163.494 9.18522C162.894 8.88522 161.344 10.1352 160.169 12.0602C159.894 12.5102 159.619 12.9602 159.319 13.4852ZM174.289 9.88522C174.614 9.28522 174.914 8.76022 175.189 8.36022C175.414 8.03522 175.614 7.98522 175.789 8.21022C176.164 8.66022 176.364 9.73522 175.764 10.9852C175.214 12.1102 173.964 13.9852 173.364 15.3102C172.739 16.7102 172.714 17.7852 173.564 17.7352C174.589 17.6852 175.964 15.9852 176.839 14.2602C176.964 14.0352 177.139 14.0102 177.239 14.2352C177.339 14.4602 177.339 15.0852 177.014 15.7852C176.364 17.1602 174.789 18.5352 173.414 18.4602C172.064 18.3852 171.364 17.5852 171.364 16.4102C170.564 17.4352 169.439 18.3602 168.239 18.3602C165.914 18.3602 165.439 15.1852 167.514 12.1602C169.539 9.21022 171.514 8.08522 172.764 8.08522C173.839 8.08522 174.339 8.91022 174.289 9.88522ZM172.114 13.7602C173.689 11.0102 173.914 9.46022 173.189 9.38522C172.389 9.31022 170.564 10.9352 169.189 13.1602C167.864 15.3102 167.539 17.5102 168.514 17.5352C169.539 17.5602 170.839 15.9602 172.114 13.7602ZM180.37 10.6602C181.495 9.46022 183.195 8.08522 184.02 8.21022C184.845 8.33522 185.62 9.56022 184.995 10.8602C184.47 11.9602 183.245 13.8102 182.67 15.1102C182.02 16.5602 182.17 17.7352 183.07 17.6852C184.095 17.6352 185.32 15.9852 186.27 14.2352C186.395 14.0102 186.57 14.0102 186.695 14.2102C186.87 14.4852 186.82 15.0602 186.47 15.7852C185.795 17.1852 184.22 18.4602 182.77 18.4602C180.645 18.4602 180.145 16.9102 180.87 14.7352C181.695 12.2852 183.895 9.63522 183.445 9.43522C183.195 9.33522 181.745 10.0352 180.145 11.7852C178.67 13.3852 177.57 15.7852 176.495 18.1352C176.395 18.3602 176.245 18.4602 176.02 18.2352C175.52 17.7352 175.37 16.9102 175.77 15.6602C176.27 14.0852 178.195 10.6102 179.77 8.28522C179.945 8.01022 180.145 8.03522 180.295 8.28522C180.67 8.91022 180.645 9.76022 180.37 10.6602ZM195.493 15.5852C194.518 17.1352 192.768 18.0852 190.693 18.9352C189.293 22.2852 187.518 26.3102 185.443 27.1102C184.968 27.2852 184.493 27.2852 184.018 26.5852C183.518 25.8352 183.018 24.9602 183.518 23.4852C184.268 21.2352 186.393 19.7352 188.868 18.7602C189.118 18.1852 189.368 17.5602 189.643 16.9602C188.868 17.7602 187.918 18.4102 186.918 18.3352C185.118 18.1852 185.068 16.3602 185.643 14.7102C186.193 13.1102 187.418 10.6352 189.043 8.38522C189.243 8.11022 189.493 8.13522 189.668 8.38522C190.268 9.18522 190.118 10.2352 189.193 11.7102C188.293 13.1602 187.743 14.1852 187.268 15.3602C186.768 16.5852 186.818 17.4602 187.393 17.5102C188.368 17.5852 189.618 15.9852 190.893 13.8102C191.968 11.9602 193.043 9.71022 193.918 8.43522C194.143 8.11022 194.318 8.06022 194.543 8.26022C194.893 8.71022 195.093 9.78522 194.443 11.0602C193.693 12.5102 192.168 15.5102 191.118 17.9352C193.068 16.8852 194.543 15.4602 195.543 14.0852C195.668 13.9102 195.893 13.8852 195.943 14.1352C195.993 14.3602 195.918 14.9352 195.493 15.5852ZM188.443 19.8102C185.193 21.6852 184.068 25.1102 184.518 25.7352C184.843 26.2102 186.893 23.4852 188.443 19.8102Z" fill="white"/>
<path d="M118.413 6.19278C117.873 5.89441 117.314 5.64536 116.741 5.4479C115.885 5.11051 115.002 4.87263 114.105 4.73778C113.002 4.60888 111.893 4.58099 110.786 4.65438C109.541 4.7909 108.309 5.05332 107.104 5.43864C105.814 5.86602 104.564 6.44153 103.372 7.15659C102.146 7.89994 100.98 8.77162 99.891 9.76075C98.8208 10.78 97.8202 11.8934 96.898 13.0912C96.0143 14.2861 95.2188 15.5649 94.52 16.9141C93.8467 18.2229 93.2841 19.6039 92.84 21.0381C92.0011 23.6672 91.559 26.4439 91.533 29.2467C91.5254 30.4521 91.5963 31.6564 91.745 32.8495C91.8672 33.8391 92.049 34.8177 92.289 35.778C92.3606 36.143 92.4548 36.5015 92.571 36.8507C92.75 36.4232 92.945 35.9552 93.165 35.4502C94.4975 32.4 96.0185 29.4654 97.716 26.6692C98.6273 25.1799 99.6077 23.7491 100.653 22.383C101.181 21.7575 101.691 21.1505 102.171 20.5724L103.614 19.0664C104.1 18.6552 104.547 18.2729 104.937 17.9265C105.275 17.6377 105.629 17.376 105.998 17.1434C106.598 16.7322 106.947 16.5005 106.947 16.5005C106.947 16.5005 106.623 16.7704 106.047 17.2268C105.696 17.4927 105.362 17.7865 105.047 18.1061C104.684 18.4698 104.276 18.8799 103.822 19.3364C103.417 19.831 102.97 20.3789 102.501 20.9419C102.071 21.549 101.616 22.1838 101.145 22.8464C100.215 24.2757 99.3508 25.7613 98.557 27.2971C97.0952 30.1774 95.8113 33.1741 94.715 36.2645C94.464 36.9746 94.252 37.6095 94.065 38.169C94.455 38.0474 94.941 37.9176 95.465 37.7056C96.13 37.4357 96.989 37.1635 97.826 36.7719C98.686 36.3896 99.593 35.9529 100.52 35.4386C101.453 34.9439 102.36 34.3566 103.295 33.7403C104.23 33.124 105.108 32.4185 105.984 31.7015C106.841 30.9688 107.664 30.1842 108.449 29.351C109.22 28.5278 109.951 27.6569 110.641 26.7422C111.975 24.9833 113.137 23.0586 114.105 21.0033C114.583 20.0052 115.017 18.9799 115.405 17.9312C115.81 16.9419 116.159 15.8333 116.5 14.8254C116.841 13.8176 117.165 12.8179 117.449 11.839C117.749 10.8207 118.016 9.94378 118.249 9.21513C118.5 8.49574 118.662 7.75087 118.808 7.3014C118.947 6.79748 119.008 6.53683 119.008 6.53683C119.008 6.53683 118.808 6.3955 118.416 6.1893L118.413 6.19278Z" fill="#DFEFCE"/>
<path d="M88.247 28.6119C86.9572 27.5606 85.7148 26.4331 84.525 25.2339L82.959 23.4893C82.488 22.902 82.059 22.3402 81.644 21.827C81.287 21.2675 80.954 20.7543 80.662 20.3071C80.408 19.9204 80.1803 19.5114 79.981 19.0838C79.624 18.3888 79.42 17.9914 79.42 17.9914C79.42 17.9914 79.648 18.3737 80.053 19.0259C80.2777 19.4315 80.5298 19.8157 80.807 20.1751C81.125 20.5956 81.49 21.0705 81.879 21.5849C82.317 22.0482 82.779 22.5649 83.279 23.1071C83.807 23.6017 84.365 24.123 84.934 24.6651C86.1766 25.7341 87.4671 26.7264 88.8 27.6377C89.369 28.0292 89.936 28.3756 90.511 28.7197C90.7015 25.2627 91.291 21.8508 92.264 18.5753C91.7365 17.7739 91.1737 17.0044 90.578 16.27C89.8651 15.3815 89.1092 14.5407 88.314 13.7515C86.7868 12.2072 85.1123 10.8702 83.323 9.76654C82.46 9.21328 81.5717 8.7148 80.662 8.27332C79.794 7.80995 78.836 7.40334 77.952 7.01179C77.084 6.62024 76.209 6.24722 75.352 5.92981C74.478 5.56606 73.713 5.25792 73.082 5.00307C72.46 4.70882 71.802 4.52347 71.414 4.35318C70.984 4.20259 70.758 4.1215 70.758 4.1215C70.645 4.34225 70.5418 4.5696 70.449 4.80266C70.1947 5.42544 69.9782 6.06799 69.801 6.72565C69.5074 7.71031 69.3004 8.72677 69.183 9.75959C69.0698 11.0272 69.0454 12.3033 69.11 13.5755C69.2246 15.0096 69.4529 16.4285 69.792 17.8142C70.1655 19.3009 70.6649 20.7413 71.283 22.1143C71.9329 23.5219 72.6906 24.8591 73.547 26.1097C74.4346 27.344 75.4042 28.4959 76.447 29.5549C77.4884 30.573 78.602 31.4875 79.776 32.2888C80.9125 33.0677 82.111 33.7183 83.355 34.2315C85.6428 35.1922 88.0537 35.7013 90.487 35.7374C90.587 35.7374 90.666 35.7282 90.755 35.7189C90.5221 33.9172 90.4241 32.0955 90.462 30.2743C89.723 29.7414 88.985 29.2178 88.246 28.6212L88.247 28.6119Z" fill="#DFEFCE"/>
</svg>
